<mxGraphModel dx="852" dy="412" grid="1" gridSize="10" guides="1" tooltips="1" connect="1" arrows="1" fold="1" page="1" pageScale="1" pageWidth="850" pageHeight="1100" math="0" shadow="0">
  <root>
    <mxCell id="0" />
    <mxCell id="1" parent="0" />
    <mxCell id="OrjKXsVGAu7espUL8Ltw-1" value="incomes :IncomeList" style="shape=umlLifeline;rounded=1;perimeter=lifelinePerimeter;whiteSpace=wrap;html=1;container=0;dropTarget=0;collapsible=0;recursiveResize=0;outlineConnect=0;portConstraint=eastwest;newEdgeStyle={&quot;edgeStyle&quot;:&quot;elbowEdgeStyle&quot;,&quot;elbow&quot;:&quot;vertical&quot;,&quot;curved&quot;:0,&quot;rounded&quot;:0};" parent="1" vertex="1">
      <mxGeometry x="338" y="40" width="100" height="890" as="geometry" />
    </mxCell>
    <mxCell id="OrjKXsVGAu7espUL8Ltw-112" value="" style="html=1;points=[];perimeter=orthogonalPerimeter;outlineConnect=0;targetShapes=umlLifeline;portConstraint=eastwest;newEdgeStyle={&quot;edgeStyle&quot;:&quot;elbowEdgeStyle&quot;,&quot;elbow&quot;:&quot;vertical&quot;,&quot;curved&quot;:0,&quot;rounded&quot;:0};" parent="1" vertex="1">
      <mxGeometry x="383" y="556" width="10" height="300" as="geometry" />
    </mxCell>
    <mxCell id="aM9ryv3xv72pqoxQDRHE-1" value=":Storage" style="shape=umlLifeline;rounded=1;perimeter=lifelinePerimeter;whiteSpace=wrap;html=1;container=0;dropTarget=0;collapsible=0;recursiveResize=0;outlineConnect=0;portConstraint=eastwest;newEdgeStyle={&quot;edgeStyle&quot;:&quot;elbowEdgeStyle&quot;,&quot;elbow&quot;:&quot;vertical&quot;,&quot;curved&quot;:0,&quot;rounded&quot;:0};" parent="1" vertex="1">
      <mxGeometry x="118" y="40" width="100" height="890" as="geometry" />
    </mxCell>
    <mxCell id="aM9ryv3xv72pqoxQDRHE-5" value="spendings :SpendingList" style="shape=umlLifeline;rounded=1;perimeter=lifelinePerimeter;whiteSpace=wrap;html=1;container=0;dropTarget=0;collapsible=0;recursiveResize=0;outlineConnect=0;portConstraint=eastwest;newEdgeStyle={&quot;edgeStyle&quot;:&quot;elbowEdgeStyle&quot;,&quot;elbow&quot;:&quot;vertical&quot;,&quot;curved&quot;:0,&quot;rounded&quot;:0};" parent="1" vertex="1">
      <mxGeometry x="228" y="40" width="100" height="890" as="geometry" />
    </mxCell>
    <mxCell id="OrjKXsVGAu7espUL8Ltw-9" value=":Wiagi" style="shape=umlLifeline;rounded=1;perimeter=lifelinePerimeter;whiteSpace=wrap;html=1;container=0;dropTarget=0;collapsible=0;recursiveResize=0;outlineConnect=0;portConstraint=eastwest;newEdgeStyle={&quot;edgeStyle&quot;:&quot;elbowEdgeStyle&quot;,&quot;elbow&quot;:&quot;vertical&quot;,&quot;curved&quot;:0,&quot;rounded&quot;:0};" parent="1" vertex="1">
      <mxGeometry x="8" y="40" width="100" height="890" as="geometry" />
    </mxCell>
    <mxCell id="aM9ryv3xv72pqoxQDRHE-2" value="" style="html=1;points=[];perimeter=orthogonalPerimeter;outlineConnect=0;targetShapes=umlLifeline;portConstraint=eastwest;newEdgeStyle={&quot;edgeStyle&quot;:&quot;elbowEdgeStyle&quot;,&quot;elbow&quot;:&quot;vertical&quot;,&quot;curved&quot;:0,&quot;rounded&quot;:0};" parent="OrjKXsVGAu7espUL8Ltw-9" vertex="1">
      <mxGeometry x="45" y="68" width="10" height="792" as="geometry" />
    </mxCell>
    <mxCell id="OrjKXsVGAu7espUL8Ltw-2" value="Load from Storage" style="rounded=0;whiteSpace=wrap;html=1;" parent="1" vertex="1">
      <mxGeometry x="18" y="130" width="410" height="50" as="geometry" />
    </mxCell>
    <mxCell id="OrjKXsVGAu7espUL8Ltw-3" value="" style="shape=card;whiteSpace=wrap;html=1;rotation=90;size=15;flipV=0;flipH=1;" parent="1" vertex="1">
      <mxGeometry x="40.5" y="108" width="20" height="65" as="geometry" />
    </mxCell>
    <mxCell id="OrjKXsVGAu7espUL8Ltw-6" value="ref" style="text;html=1;align=center;verticalAlign=middle;whiteSpace=wrap;rounded=0;" parent="1" vertex="1">
      <mxGeometry x="25" y="130" width="36" height="20" as="geometry" />
    </mxCell>
    <mxCell id="OrjKXsVGAu7espUL8Ltw-11" value="" style="endArrow=block;html=1;rounded=0;endFill=1;" parent="1" source="aM9ryv3xv72pqoxQDRHE-2" edge="1">
      <mxGeometry width="50" height="50" relative="1" as="geometry">
        <mxPoint x="68" y="230" as="sourcePoint" />
        <mxPoint x="273.5" y="230" as="targetPoint" />
      </mxGeometry>
    </mxCell>
    <mxCell id="OrjKXsVGAu7espUL8Ltw-12" value="" style="html=1;points=[];perimeter=orthogonalPerimeter;outlineConnect=0;targetShapes=umlLifeline;portConstraint=eastwest;newEdgeStyle={&quot;edgeStyle&quot;:&quot;elbowEdgeStyle&quot;,&quot;elbow&quot;:&quot;vertical&quot;,&quot;curved&quot;:0,&quot;rounded&quot;:0};" parent="1" vertex="1">
      <mxGeometry x="273" y="230" width="10" height="300" as="geometry" />
    </mxCell>
    <mxCell id="OrjKXsVGAu7espUL8Ltw-13" value="updateRecurrence()" style="text;html=1;align=center;verticalAlign=middle;whiteSpace=wrap;rounded=0;" parent="1" vertex="1">
      <mxGeometry x="138" y="207" width="60" height="30" as="geometry" />
    </mxCell>
    <mxCell id="OrjKXsVGAu7espUL8Ltw-14" value="&amp;lt;&amp;lt;class&amp;gt;&amp;gt;&lt;br&gt;:Parser" style="shape=umlLifeline;rounded=1;perimeter=lifelinePerimeter;whiteSpace=wrap;html=1;container=0;dropTarget=0;collapsible=0;recursiveResize=0;outlineConnect=0;portConstraint=eastwest;newEdgeStyle={&quot;edgeStyle&quot;:&quot;elbowEdgeStyle&quot;,&quot;elbow&quot;:&quot;vertical&quot;,&quot;curved&quot;:0,&quot;rounded&quot;:0};" parent="1" vertex="1">
      <mxGeometry x="554" y="40" width="100" height="890" as="geometry" />
    </mxCell>
    <mxCell id="OrjKXsVGAu7espUL8Ltw-23" value="recurrence :Recurrence&lt;span style=&quot;color: rgba(0, 0, 0, 0); font-family: monospace; font-size: 0px; text-align: start; text-wrap-mode: nowrap;&quot;&gt;%3CmxGraphModel%3E%3Croot%3E%3CmxCell%20id%3D%220%22%2F%3E%3CmxCell%20id%3D%221%22%20parent%3D%220%22%2F%3E%3CmxCell%20id%3D%222%22%20value%3D%22%26amp%3Blt%3B%26amp%3Blt%3Bclass%26amp%3Bgt%3B%26amp%3Bgt%3B%26lt%3Bbr%26gt%3B%3AParser%22%20style%3D%22shape%3DumlLifeline%3Bperimeter%3DlifelinePerimeter%3BwhiteSpace%3Dwrap%3Bhtml%3D1%3Bcontainer%3D0%3BdropTarget%3D0%3Bcollapsible%3D0%3BrecursiveResize%3D0%3BoutlineConnect%3D0%3BportConstraint%3Deastwest%3BnewEdgeStyle%3D%7B%26quot%3BedgeStyle%26quot%3B%3A%26quot%3BelbowEdgeStyle%26quot%3B%2C%26quot%3Belbow%26quot%3B%3A%26quot%3Bvertical%26quot%3B%2C%26quot%3Bcurved%26quot%3B%3A0%2C%26quot%3Brounded%26quot%3B%3A0%7D%3B%22%20vertex%3D%221%22%20parent%3D%221%22%3E%3CmxGeometry%20x%3D%22509%22%20y%3D%2240%22%20width%3D%22100%22%20height%3D%22390%22%20as%3D%22geometry%22%2F%3E%3C%2FmxCell%3E%3CmxCell%20id%3D%223%22%20value%3D%22%22%20style%3D%22html%3D1%3Bpoints%3D%5B%5D%3Bperimeter%3DorthogonalPerimeter%3BoutlineConnect%3D0%3BtargetShapes%3DumlLifeline%3BportConstraint%3Deastwest%3BnewEdgeStyle%3D%7B%26quot%3BedgeStyle%26quot%3B%3A%26quot%3BelbowEdgeStyle%26quot%3B%2C%26quot%3Belbow%26quot%3B%3A%26quot%3Bvertical%26quot%3B%2C%26quot%3Bcurved%26quot%3B%3A0%2C%26quot%3Brounded%26quot%3B%3A0%7D%3B%22%20vertex%3D%221%22%20parent%3D%222%22%3E%3CmxGeometry%20x%3D%2245%22%20y%3D%22202%22%20width%3D%2210%22%20height%3D%2233%22%20as%3D%22geometry%22%2F%3E%3C%2FmxCell%3E%3C%2Froot%3E%3C%2FmxGraphModel%3E&lt;/span&gt;" style="shape=umlLifeline;rounded=1;perimeter=lifelinePerimeter;whiteSpace=wrap;html=1;container=0;dropTarget=0;collapsible=0;recursiveResize=0;outlineConnect=0;portConstraint=eastwest;newEdgeStyle={&quot;edgeStyle&quot;:&quot;elbowEdgeStyle&quot;,&quot;elbow&quot;:&quot;vertical&quot;,&quot;curved&quot;:0,&quot;rounded&quot;:0};" parent="1" vertex="1">
      <mxGeometry x="829" y="40" width="100" height="890" as="geometry" />
    </mxCell>
    <mxCell id="OrjKXsVGAu7espUL8Ltw-49" value="" style="shape=callout;whiteSpace=wrap;html=1;perimeter=calloutPerimeter;base=10;size=27;position=0.62;rotation=-90;position2=0.9;" parent="1" vertex="1">
      <mxGeometry x="743.69" y="36" width="60" height="104.12" as="geometry" />
    </mxCell>
    <mxCell id="OrjKXsVGAu7espUL8Ltw-50" value="" style="shape=note;whiteSpace=wrap;html=1;backgroundOutline=1;darkOpacity=0.05;rotation=-90;size=16;" parent="1" vertex="1">
      <mxGeometry x="717.13" y="45.63" width="72.5" height="91.25" as="geometry" />
    </mxCell>
    <mxCell id="OrjKXsVGAu7espUL8Ltw-51" value="&lt;font style=&quot;font-size: 8px;&quot;&gt;Could be any child class (DailyRecurrence, MontlyRecurrence, YearlyRecurrence)&lt;/font&gt;" style="text;html=1;align=center;verticalAlign=middle;whiteSpace=wrap;rounded=0;" parent="1" vertex="1">
      <mxGeometry x="702.3800000000001" y="82" width="105.62" height="30" as="geometry" />
    </mxCell>
    <mxCell id="OrjKXsVGAu7espUL8Ltw-76" value="" style="html=1;points=[];perimeter=orthogonalPerimeter;outlineConnect=0;targetShapes=umlLifeline;portConstraint=eastwest;newEdgeStyle={&quot;edgeStyle&quot;:&quot;elbowEdgeStyle&quot;,&quot;elbow&quot;:&quot;vertical&quot;,&quot;curved&quot;:0,&quot;rounded&quot;:0};" parent="1" vertex="1">
      <mxGeometry x="599" y="291" width="10" height="33" as="geometry" />
    </mxCell>
    <mxCell id="OrjKXsVGAu7espUL8Ltw-77" value="" style="endArrow=block;html=1;rounded=0;endFill=1;" parent="1" edge="1">
      <mxGeometry width="50" height="50" relative="1" as="geometry">
        <mxPoint x="283" y="291" as="sourcePoint" />
        <mxPoint x="600" y="291" as="targetPoint" />
      </mxGeometry>
    </mxCell>
    <mxCell id="OrjKXsVGAu7espUL8Ltw-78" value="parseRecurrence(income : Income&lt;span style=&quot;background-color: initial;&quot;&gt;)&lt;/span&gt;" style="text;html=1;align=center;verticalAlign=middle;whiteSpace=wrap;rounded=0;" parent="1" vertex="1">
      <mxGeometry x="328" y="267" width="210" height="30" as="geometry" />
    </mxCell>
    <mxCell id="OrjKXsVGAu7espUL8Ltw-79" value="" style="endArrow=block;dashed=1;html=1;rounded=0;endFill=1;" parent="1" source="OrjKXsVGAu7espUL8Ltw-76" edge="1">
      <mxGeometry width="50" height="50" relative="1" as="geometry">
        <mxPoint x="493" y="324" as="sourcePoint" />
        <mxPoint x="283" y="324" as="targetPoint" />
      </mxGeometry>
    </mxCell>
    <mxCell id="OrjKXsVGAu7espUL8Ltw-80" value="Recurrence child object" style="text;html=1;align=center;verticalAlign=middle;whiteSpace=wrap;rounded=0;" parent="1" vertex="1">
      <mxGeometry x="373" y="301" width="195" height="30" as="geometry" />
    </mxCell>
    <mxCell id="OrjKXsVGAu7espUL8Ltw-81" value="" style="html=1;points=[];perimeter=orthogonalPerimeter;outlineConnect=0;targetShapes=umlLifeline;portConstraint=eastwest;newEdgeStyle={&quot;edgeStyle&quot;:&quot;elbowEdgeStyle&quot;,&quot;elbow&quot;:&quot;vertical&quot;,&quot;curved&quot;:0,&quot;rounded&quot;:0};" parent="1" vertex="1">
      <mxGeometry x="874" y="397" width="10" height="83" as="geometry" />
    </mxCell>
    <mxCell id="OrjKXsVGAu7espUL8Ltw-82" value="" style="endArrow=block;html=1;rounded=0;endFill=1;" parent="1" target="OrjKXsVGAu7espUL8Ltw-81" edge="1">
      <mxGeometry width="50" height="50" relative="1" as="geometry">
        <mxPoint x="283" y="397" as="sourcePoint" />
        <mxPoint x="720" y="397" as="targetPoint" />
      </mxGeometry>
    </mxCell>
    <mxCell id="OrjKXsVGAu7espUL8Ltw-84" value="checkIncomeRecurrence(recurringIncome : Income, incomes : IncomeList)" style="text;html=1;align=center;verticalAlign=middle;whiteSpace=wrap;rounded=0;" parent="1" vertex="1">
      <mxGeometry x="281.5" y="370" width="433" height="30" as="geometry" />
    </mxCell>
    <mxCell id="OrjKXsVGAu7espUL8Ltw-85" value="loop" style="shape=umlFrame;whiteSpace=wrap;html=1;pointerEvents=0;" parent="1" vertex="1">
      <mxGeometry x="190" y="240" width="780" height="270" as="geometry" />
    </mxCell>
    <mxCell id="OrjKXsVGAu7espUL8Ltw-86" value="[until last element of incomes]" style="text;html=1;align=center;verticalAlign=middle;whiteSpace=wrap;rounded=0;" parent="1" vertex="1">
      <mxGeometry x="263" y="237" width="210" height="30" as="geometry" />
    </mxCell>
    <mxCell id="OrjKXsVGAu7espUL8Ltw-87" value="" style="rounded=0;whiteSpace=wrap;html=1;" parent="1" vertex="1">
      <mxGeometry x="769" y="411" width="182" height="50" as="geometry" />
    </mxCell>
    <mxCell id="OrjKXsVGAu7espUL8Ltw-88" value="" style="shape=card;whiteSpace=wrap;html=1;rotation=90;size=15;flipV=0;flipH=1;" parent="1" vertex="1">
      <mxGeometry x="791.5" y="389" width="20" height="65" as="geometry" />
    </mxCell>
    <mxCell id="OrjKXsVGAu7espUL8Ltw-89" value="ref" style="text;html=1;align=center;verticalAlign=middle;whiteSpace=wrap;rounded=0;" parent="1" vertex="1">
      <mxGeometry x="776" y="411" width="36" height="20" as="geometry" />
    </mxCell>
    <mxCell id="OrjKXsVGAu7espUL8Ltw-90" value="Add recurring entry" style="text;html=1;align=center;verticalAlign=middle;whiteSpace=wrap;rounded=0;" parent="1" vertex="1">
      <mxGeometry x="829" y="430" width="110" height="26" as="geometry" />
    </mxCell>
    <mxCell id="OrjKXsVGAu7espUL8Ltw-91" value="" style="endArrow=block;dashed=1;html=1;rounded=0;endFill=1;" parent="1" source="OrjKXsVGAu7espUL8Ltw-81" edge="1">
      <mxGeometry width="50" height="50" relative="1" as="geometry">
        <mxPoint x="870" y="479" as="sourcePoint" />
        <mxPoint x="283" y="479" as="targetPoint" />
      </mxGeometry>
    </mxCell>
    <mxCell id="OrjKXsVGAu7espUL8Ltw-92" value="return" style="text;html=1;align=center;verticalAlign=middle;whiteSpace=wrap;rounded=0;" parent="1" vertex="1">
      <mxGeometry x="433" y="453" width="60" height="31" as="geometry" />
    </mxCell>
    <mxCell id="OrjKXsVGAu7espUL8Ltw-93" value="" style="html=1;points=[];perimeter=orthogonalPerimeter;outlineConnect=0;targetShapes=umlLifeline;portConstraint=eastwest;newEdgeStyle={&quot;edgeStyle&quot;:&quot;elbowEdgeStyle&quot;,&quot;elbow&quot;:&quot;vertical&quot;,&quot;curved&quot;:0,&quot;rounded&quot;:0};" parent="1" vertex="1">
      <mxGeometry x="597" y="632" width="10" height="33" as="geometry" />
    </mxCell>
    <mxCell id="OrjKXsVGAu7espUL8Ltw-94" value="" style="endArrow=block;html=1;rounded=0;endFill=1;" parent="1" edge="1">
      <mxGeometry width="50" height="50" relative="1" as="geometry">
        <mxPoint x="393" y="632" as="sourcePoint" />
        <mxPoint x="600" y="632" as="targetPoint" />
      </mxGeometry>
    </mxCell>
    <mxCell id="OrjKXsVGAu7espUL8Ltw-95" value="parseRecurrence(spending : Spending&lt;span style=&quot;background-color: initial;&quot;&gt;)&lt;/span&gt;" style="text;html=1;align=center;verticalAlign=middle;whiteSpace=wrap;rounded=0;" parent="1" vertex="1">
      <mxGeometry x="389" y="607" width="221" height="30" as="geometry" />
    </mxCell>
    <mxCell id="OrjKXsVGAu7espUL8Ltw-96" value="" style="endArrow=block;dashed=1;html=1;rounded=0;endFill=1;" parent="1" edge="1">
      <mxGeometry width="50" height="50" relative="1" as="geometry">
        <mxPoint x="606.9999999999998" y="665" as="sourcePoint" />
        <mxPoint x="393.5" y="665" as="targetPoint" />
      </mxGeometry>
    </mxCell>
    <mxCell id="OrjKXsVGAu7espUL8Ltw-97" value="Recurrence child object" style="text;html=1;align=center;verticalAlign=middle;whiteSpace=wrap;rounded=0;" parent="1" vertex="1">
      <mxGeometry x="400" y="640" width="195" height="30" as="geometry" />
    </mxCell>
    <mxCell id="OrjKXsVGAu7espUL8Ltw-98" value="" style="html=1;points=[];perimeter=orthogonalPerimeter;outlineConnect=0;targetShapes=umlLifeline;portConstraint=eastwest;newEdgeStyle={&quot;edgeStyle&quot;:&quot;elbowEdgeStyle&quot;,&quot;elbow&quot;:&quot;vertical&quot;,&quot;curved&quot;:0,&quot;rounded&quot;:0};" parent="1" vertex="1">
      <mxGeometry x="872" y="738" width="10" height="83" as="geometry" />
    </mxCell>
    <mxCell id="OrjKXsVGAu7espUL8Ltw-99" value="" style="endArrow=block;html=1;rounded=0;endFill=1;" parent="1" source="OrjKXsVGAu7espUL8Ltw-112" target="OrjKXsVGAu7espUL8Ltw-98" edge="1">
      <mxGeometry width="50" height="50" relative="1" as="geometry">
        <mxPoint x="281" y="738" as="sourcePoint" />
        <mxPoint x="718" y="738" as="targetPoint" />
      </mxGeometry>
    </mxCell>
    <mxCell id="OrjKXsVGAu7espUL8Ltw-101" value="checkSpendingRecurrence(recurringSpending : Spending, spendings : SpendingList)" style="text;html=1;align=center;verticalAlign=middle;whiteSpace=wrap;rounded=0;" parent="1" vertex="1">
      <mxGeometry x="392.5" y="711" width="481" height="30" as="geometry" />
    </mxCell>
    <mxCell id="OrjKXsVGAu7espUL8Ltw-102" value="loop" style="shape=umlFrame;whiteSpace=wrap;html=1;pointerEvents=0;" parent="1" vertex="1">
      <mxGeometry x="310" y="581" width="660" height="250" as="geometry" />
    </mxCell>
    <mxCell id="OrjKXsVGAu7espUL8Ltw-103" value="[until last element of spendings]" style="text;html=1;align=center;verticalAlign=middle;whiteSpace=wrap;rounded=0;" parent="1" vertex="1">
      <mxGeometry x="383" y="577" width="210" height="30" as="geometry" />
    </mxCell>
    <mxCell id="OrjKXsVGAu7espUL8Ltw-104" value="" style="rounded=0;whiteSpace=wrap;html=1;" parent="1" vertex="1">
      <mxGeometry x="767" y="752" width="182" height="50" as="geometry" />
    </mxCell>
    <mxCell id="OrjKXsVGAu7espUL8Ltw-105" value="" style="shape=card;whiteSpace=wrap;html=1;rotation=90;size=15;flipV=0;flipH=1;" parent="1" vertex="1">
      <mxGeometry x="789.5" y="730" width="20" height="65" as="geometry" />
    </mxCell>
    <mxCell id="OrjKXsVGAu7espUL8Ltw-106" value="ref" style="text;html=1;align=center;verticalAlign=middle;whiteSpace=wrap;rounded=0;" parent="1" vertex="1">
      <mxGeometry x="774" y="752" width="36" height="20" as="geometry" />
    </mxCell>
    <mxCell id="OrjKXsVGAu7espUL8Ltw-107" value="Add recurring entry" style="text;html=1;align=center;verticalAlign=middle;whiteSpace=wrap;rounded=0;" parent="1" vertex="1">
      <mxGeometry x="827" y="771" width="110" height="26" as="geometry" />
    </mxCell>
    <mxCell id="OrjKXsVGAu7espUL8Ltw-108" value="" style="endArrow=block;dashed=1;html=1;rounded=0;endFill=1;" parent="1" edge="1">
      <mxGeometry width="50" height="50" relative="1" as="geometry">
        <mxPoint x="870" y="820" as="sourcePoint" />
        <mxPoint x="392" y="820" as="targetPoint" />
      </mxGeometry>
    </mxCell>
    <mxCell id="OrjKXsVGAu7espUL8Ltw-109" value="return" style="text;html=1;align=center;verticalAlign=middle;whiteSpace=wrap;rounded=0;" parent="1" vertex="1">
      <mxGeometry x="654" y="795" width="60" height="31" as="geometry" />
    </mxCell>
    <mxCell id="OrjKXsVGAu7espUL8Ltw-110" value="" style="endArrow=block;dashed=1;html=1;rounded=0;endFill=1;" parent="1" edge="1">
      <mxGeometry width="50" height="50" relative="1" as="geometry">
        <mxPoint x="271" y="530" as="sourcePoint" />
        <mxPoint x="61" y="530" as="targetPoint" />
      </mxGeometry>
    </mxCell>
    <mxCell id="OrjKXsVGAu7espUL8Ltw-111" value="return" style="text;html=1;align=center;verticalAlign=middle;whiteSpace=wrap;rounded=0;" parent="1" vertex="1">
      <mxGeometry x="99" y="499" width="60" height="31" as="geometry" />
    </mxCell>
    <mxCell id="OrjKXsVGAu7espUL8Ltw-113" value="" style="endArrow=block;html=1;rounded=0;endFill=1;" parent="1" source="aM9ryv3xv72pqoxQDRHE-2" edge="1">
      <mxGeometry width="50" height="50" relative="1" as="geometry">
        <mxPoint x="61" y="556.47" as="sourcePoint" />
        <mxPoint x="383" y="556.4700000000001" as="targetPoint" />
      </mxGeometry>
    </mxCell>
    <mxCell id="OrjKXsVGAu7espUL8Ltw-114" value="updateRecurrence()" style="text;html=1;align=center;verticalAlign=middle;whiteSpace=wrap;rounded=0;" parent="1" vertex="1">
      <mxGeometry x="193" y="531" width="60" height="30" as="geometry" />
    </mxCell>
    <mxCell id="OrjKXsVGAu7espUL8Ltw-115" value="" style="endArrow=block;dashed=1;html=1;rounded=0;endFill=1;" parent="1" edge="1">
      <mxGeometry width="50" height="50" relative="1" as="geometry">
        <mxPoint x="388" y="856" as="sourcePoint" />
        <mxPoint x="63.38888888888903" y="856.0000000000002" as="targetPoint" />
      </mxGeometry>
    </mxCell>
    <mxCell id="OrjKXsVGAu7espUL8Ltw-116" value="return" style="text;html=1;align=center;verticalAlign=middle;whiteSpace=wrap;rounded=0;" parent="1" vertex="1">
      <mxGeometry x="193" y="826" width="60" height="31" as="geometry" />
    </mxCell>
  </root>
</mxGraphModel>
